<svg xmlns="http://www.w3.org/2000/svg" width="256" height="256"><path fill="#1976D2" fill-opacity=".035" fill-rule="evenodd" d="M0 128.004v128.004l128.25-.254 128.25-.254.254-127.75L257.008 0H0zm.485.496c0 70.4.119 99.053.265 63.672s.146-92.98 0-128S.485 58.1.485 128.5"/><path fill="#1976D2" fill-opacity=".167" fill-rule="evenodd" d="M90.25.649C89.563.934 89 1.772 89 2.511c0 1.276-7.673 4.677-13.709 6.078-1.535.356-4.591 1.662-6.791 2.902-2.2 1.239-5.077 2.587-6.394 2.994-3.502 1.084-15.251 9.425-23.511 16.69-13.498 11.874-19.994 20.504-28.428 37.767C5.95 77.572 1.938 85.93 1.25 87.516.397 89.483.012 96.133.039 108.449c.034 15.821.202 17.68 1.359 15.051.726-1.65 5.434-7.123 10.461-12.163 10.645-10.671 10.764-11.117 6.508-24.535-3.302-10.414-3.564-17.698-.774-21.522 2.663-3.651 9.354-6.843 17.407-8.304 3.575-.649 8.368-2.052 10.651-3.119 4.606-2.152 6.501-5.909 9.713-19.259 2.065-8.582 4.683-12.918 9.053-14.992 4.702-2.231 9.234-2.013 18.295.881 4.283 1.368 10.209 2.493 13.168 2.5l5.379.013 7.621-7.916c8.929-9.275 13.201-12.075 18.436-12.08 5.276-.005 6.887 1.027 17.389 11.135 9.021 8.684 9.303 8.861 14.094 8.861 2.688 0 7.546-.921 10.794-2.047s8.607-2.281 11.907-2.566c10.494-.908 14.945 3.636 18.443 18.831C203.418 52.312 204.624 53.531 219.5 57c10.242 2.388 13.384 3.885 16.881 8.041 3.418 4.062 3.455 9.766.134 20.459-4.287 13.8-3.186 18.249 6.548 26.456 7.855 6.623 10.937 11.43 10.937 17.054 0 5.875-2.383 9.568-12.531 19.425-7.3 7.089-7.469 7.365-7.456 12.159.007 2.698 1.132 8.411 2.5 12.694 5.566 17.428 1.734 24.124-16.111 28.158-12.664 2.863-14.838 4.045-17.156 9.325-1.142 2.601-2.775 7.781-3.629 11.511-4.043 17.654-10.461 20.952-29.617 15.218-4.594-1.375-9.768-2.5-11.498-2.5q-5.597 0-14.683 10.422c-2.36 2.707-6.298 6.194-8.751 7.75l-4.46 2.828h35.519l10.186-4.191c17.537-7.215 37.569-21.007 49.976-34.408 7.808-8.433 17.701-24.45 23.286-37.699 2.597-6.161 5.305-12.102 6.018-13.202 1.008-1.557 1.274-10.537 1.199-40.5-.053-21.175-.368-36.925-.701-35-.762 4.415-1.619 3.162-4.195-6.134-3.465-12.504-13.741-29.642-25.322-42.23-18.012-19.579-29.02-27.3-52.074-36.525l-14-5.602L126 .321C107.025.217 90.938.365 90.25.649M69 76.869c0 6.036.043 6.131 2.777 6.131 8.973 0 9.823-10.217.97-11.654L69 70.738zm11.47-4.651c-.903 2.353-.109 10.282 1.03 10.282 1.358 0 1.881-9.519.593-10.807-.703-.703-1.215-.538-1.623.525m5.059.137c-2.347 1.716-1.438 4.349 1.945 5.635 3.263 1.241 3.265 2.384.002 1.761-3.277-.627-4.144.821-1.378 2.302 1.597.854 2.789.864 4.6.039 2.953-1.346 2.725-4.073-.475-5.668-3.518-1.754-4.003-2.772-.973-2.046 2.013.483 2.75.282 2.75-.752C92 72.353 89.996 71 88.109 71c-.4 0-1.561.61-2.58 1.355M93 72.5c0 .825.649 1.5 1.443 1.5.982 0 1.54 1.356 1.75 4.25.169 2.338.757 4.25 1.307 4.25s1.138-1.912 1.307-4.25c.21-2.894.768-4.25 1.75-4.25.794 0 1.443-.675 1.443-1.5 0-1.111-1.167-1.5-4.5-1.5s-4.5.389-4.5 1.5m10 4.5c0 3.333.444 6 1 6 .55 0 1-.9 1-2s.434-2 .965-2 1.446.9 2.035 2c1.521 2.841 3.351 2.533 2.605-.439-.337-1.341-.161-2.718.391-3.059 2.979-1.841-.654-6.502-5.067-6.502-2.913 0-2.929.033-2.929 6m10 0c0 3.333.444 6 1 6s1-2.667 1-6-.444-6-1-6-1 2.667-1 6m4.667-5.333c-.367.366-.667 3.066-.667 6V83l3.25-.015c1.787-.009 3.771-.347 4.408-.752 1.382-.88 1.426-8.207.059-9.983-1.012-1.316-5.913-1.721-7.05-.583m10 0c-1.452 1.452-.603 7.397 1.333 9.333 2.269 2.269 3.318 2.435 6.066.965 1.513-.81 1.934-2.115 1.934-6 0-6.056-1.764-6.631-2.193-.715-.251 3.481-.669 4.25-2.307 4.25s-2.056-.769-2.307-4.25c-.292-4.031-1.031-5.079-2.526-3.583M139 77c0 4.489.34 6.053 1.25 5.75.792-.264 1.25-2.372 1.25-5.75s-.458-5.486-1.25-5.75c-.91-.303-1.25 1.261-1.25 5.75m4 0c0 5.893.049 6 2.777 6 4.106 0 7.223-2.589 7.223-6s-3.117-6-7.223-6c-2.728 0-2.777.107-2.777 6m13.223-4.443c-3.188 2.232-2.987 6.897.392 9.11 2.342 1.535 2.891 1.56 5.25.242 3.624-2.024 4.151-7.084.969-9.313-2.84-1.989-3.82-1.995-6.611-.039M167 77c0 3.333.444 6 1 6 .55 0 1-.9 1-2 0-2.643 1.396-2.536 3.269.25 1.84 2.738 3.339 1.755 1.777-1.164-.742-1.386-.769-2.086-.081-2.086.569 0 1.035-1.302 1.035-2.893 0-3.053-1.432-4.107-5.582-4.107-2.289 0-2.418.321-2.418 6m11.484-2.308c-2.276 5.447-2.845 8.308-1.651 8.308.577 0 1.327-.45 1.667-1s1.716-1 3.059-1 2.441.45 2.441 1 .705 1 1.567 1c1.165 0 1.389-.578.872-2.25-1.233-3.989-4.451-9.75-5.446-9.75-.531 0-1.66 1.661-2.509 3.692M71 77c0 2.683.327 3.093 2.25 2.82 1.648-.235 2.25-.989 2.25-2.82s-.602-2.585-2.25-2.82C71.327 73.907 71 74.317 71 77m34-2c0 .55.9 1 2 1s2-.45 2-1-.9-1-2-1-2 .45-2 1m15 0c0 .55.675 1 1.5 1s1.5-.45 1.5-1-.675-1-1.5-1-1.5.45-1.5 1m26 1.927c0 2.439.426 3.073 2.066 3.073 1.663 0 2.005-.535 1.75-2.741-.19-1.654-1.011-2.874-2.066-3.074-1.359-.258-1.75.355-1.75 2.742m11.667-2.26c-.367.366-.667 1.716-.667 3 0 1.794.553 2.333 2.393 2.333 2.558 0 3.909-2.048 2.969-4.5-.587-1.528-3.486-2.042-4.695-.833M169 75c0 .55.9 1 2 1s2-.45 2-1-.9-1-2-1-2 .45-2 1m11.638 1.5c-.316.825-.139 1.5.393 1.5.533 0 .969-.675.969-1.5s-.177-1.5-.393-1.5-.652.675-.969 1.5M120 79c0 .55.675 1 1.5 1s1.5-.45 1.5-1-.675-1-1.5-1-1.5.45-1.5 1M.417 107.5c.001 10.45.149 14.589.329 9.198s.179-13.941-.002-19-.328-.648-.327 9.802m36.798-3.83c.233 8.833.562 10.83 1.785 10.83 1.238 0 1.5-1.832 1.5-10.486 0-9.27-.207-10.526-1.785-10.83-1.638-.316-1.761.546-1.5 10.486m5.001.08c.232 8.763.561 10.75 1.784 10.75 1.022 0 1.617-1.274 1.866-4l.366-4 1.166 4c.676 2.321 1.782 4 2.634 4 1.183 0 1.523-2.104 1.753-10.83.261-9.939.137-10.802-1.5-10.489-1.16.222-1.985 1.564-2.355 3.83l-.571 3.489-.791-3.75c-.581-2.759-1.299-3.75-2.713-3.75-1.795 0-1.904.713-1.639 10.75M54.2 94.2c-1.882 1.882-1.36 5.939 1.326 10.3 2.668 4.332 3.519 8.46 1.082 5.25-1.898-2.5-3.608-2.161-3.608.715 0 2.862 3.127 4.947 6.035 4.024 3.431-1.089 3.591-5.294.424-11.149-1.57-2.903-2.541-5.591-2.157-5.975s.698-.173.698.468c0 .642.9 1.167 2 1.167 1.259 0 2-.667 2-1.8 0-2.404-1.924-4.2-4.5-4.2-1.155 0-2.64.54-3.3 1.2m8.8 8.604c0 10.455.893 12.749 4.677 12.02 3.072-.592 4.352-4.768 4.078-13.313-.214-6.693-.539-8.043-2.005-8.323-1.555-.297-1.771.705-1.939 8.989l-.189 9.323-.561-8.99c-.468-7.501-.851-9.045-2.311-9.323-1.572-.3-1.75.68-1.75 9.617m10.215.872c.229 8.675.574 10.824 1.74 10.824.8 0 1.768-1.125 2.15-2.5.66-2.373.701-2.386.795-.25.166 3.729 1.919 2.534 2.934-2l.952-4.25.107 4.719c.085 3.758.412 4.601 1.607 4.143 1.2-.461 1.5-2.653 1.5-10.969C85 93.862 84.843 93 83.107 93 81.086 93 80 94.846 80 98.282c0 2.819-1.726 1-2.165-2.282-.23-1.714-1.053-2.602-2.62-2.824-2.273-.323-2.283-.271-2 10.5m13.76-8.111c-.536 1.411-.975 5.361-.975 8.778 0 8.938 3.408 13.106 7.429 9.086 1.962-1.962 2.259-17.341.371-19.229-2.146-2.146-5.765-1.423-6.825 1.365m9.963.097c-.829 2.181-.532 3.613 1.64 7.905 1.459 2.883 2.411 5.847 2.116 6.587-.366.919-.561.791-.615-.404-.113-2.504-4.079-2.331-4.079.179 0 2.044 2.47 5.071 4.137 5.071 5.188 0 6.401-6.272 2.363-12.215-2.658-3.911-3.516-7.201-1.3-4.985 1.776 1.776 3.8 1.456 3.8-.6 0-4.66-6.41-5.883-8.062-1.538m13.082-.985c.043 3.887 2.772 18.515 3.612 19.355 1.886 1.886 3.245-.886 4.673-9.535l1.486-8.997.105 9.25L120 114h4c2.889 0 4-.417 4-1.5 0-.833-.889-1.5-2-1.5-2.428 0-2.844-4.462-.5-5.362.825-.316 1.5-1.264 1.5-2.107 0-.842-.675-1.531-1.5-1.531-.933 0-1.5-.944-1.5-2.5 0-2.185.436-2.5 3.461-2.5h3.461l.289 8.75c.231 6.983.592 8.75 1.789 8.75 1.196 0 1.558-1.756 1.788-8.657.215-6.479.655-8.799 1.75-9.219 1.216-.467 1.462.949 1.462 8.407V114h4c2.889 0 4-.417 4-1.5 0-.833-.889-1.5-2-1.5-2.428 0-2.844-4.462-.5-5.362.825-.316 1.5-1.264 1.5-2.107 0-.842-.675-1.531-1.5-1.531-.933 0-1.5-.944-1.5-2.5 0-1.863.528-2.5 2.073-2.5 1.436 0 1.97-.538 1.738-1.75-.298-1.557-1.964-1.781-15.073-2.033-14.046-.27-14.738-.192-14.738 1.668 0 1.073-.331 2.776-.736 3.783-.575 1.431-.849 1.068-1.25-1.657-.555-3.766-4.032-5.798-3.994-2.334m37.196 9.073c.228 8.611.574 10.75 1.739 10.75.8 0 1.768-1.125 2.15-2.5.62-2.229.706-2.268.795-.357.098 2.107 2.613 3.954 3.478 2.555.243-.394.086-2.661-.349-5.04-.468-2.556-.369-5.699.241-7.686 1.412-4.6-1.023-8.472-5.327-8.472h-3.011zm9.784-.382c0 6.635.41 10.767 1.112 11.201 2.114 1.307 2.895-2.107 2.642-11.557-.217-8.123-.506-9.537-2.004-9.824-1.577-.302-1.75.705-1.75 10.18m5-.048c0 8.056.323 10.59 1.402 11.004 1.944.746 2.586-.152 2.674-3.741l.076-3.083 1.263 3.5c1.108 3.069 1.683 3.5 4.674 3.5 2.776 0 3.47-.419 3.731-2.25.386-2.72 3.18-3.034 3.18-.357 0 1.961 2.562 3.624 3.427 2.225.27-.437-.226-5.39-1.103-11.008-1.469-9.42-1.757-10.19-3.708-9.912-1.848.264-2.32 1.505-3.728 9.802l-1.612 9.5-.388-9.5c-.311-7.605-.687-9.5-1.888-9.5-1.022 0-1.617 1.274-1.866 4l-.366 4-1.164-3.992c-.689-2.363-1.865-4.127-2.884-4.323-1.538-.297-1.72.774-1.72 10.135m22.216.349c.206 7.731.646 10.789 1.6 11.105.745.247 1.575-.554 1.913-1.845l.596-2.282.836 2.26c.982 2.653 3.447 2.244 3.102-.515-.537-4.293-.437-9.057.245-11.64 1.048-3.975-1.663-7.752-5.565-7.752h-3.011zm9.784-.301c0 10.451.462 12.2 2.836 10.733.885-.547 1.158-3.601.952-10.672-.247-8.504-.536-9.953-2.038-10.241-1.577-.302-1.75.705-1.75 10.18m6.2-9.168c-.752.752-1.2 4.494-1.2 10.021 0 8.545.082 8.859 2.617 10.014 2.311 1.053 2.839.92 4.5-1.132 2.111-2.606 2.647-12.963.908-17.538-1.06-2.788-4.679-3.511-6.825-1.365m9.75.893c-1.336 2.496-.536 6.275 2.116 10 1.064 1.494 1.92 3.546 1.902 4.561-.03 1.747-.103 1.752-1.36.096-1.898-2.5-3.608-2.161-3.608.715 0 2.282 2.415 4.535 4.863 4.535 1.84 0 4.137-3.123 4.137-5.624 0-1.365-1.125-4.138-2.5-6.161-1.375-2.024-2.464-4.362-2.421-5.197.053-1.027.242-1.114.583-.268.794 1.967 4.338 1.518 4.338-.55 0-4.245-6.057-5.83-8.05-2.107M90.336 104c0 4.125.177 5.813.392 3.75s.216-5.437 0-7.5c-.215-2.062-.392-.375-.392 3.75m60.859-4.5c.02 1.65.244 2.204.498 1.231s.237-2.323-.037-3-.481.119-.461 1.769m52.141 4.5c0 4.125.177 5.813.392 3.75s.216-5.437 0-7.5c-.215-2.062-.392-.375-.392 3.75m-15.257-4.417c.048 1.165.285 1.402.604.605.289-.722.253-1.585-.079-1.917s-.568.258-.525 1.312M177.158 104c0 1.375.227 1.938.504 1.25.278-.687.278-1.812 0-2.5-.277-.687-.504-.125-.504 1.25m-99.087 17.703c-6.306 3.305-7.497 6.076-7.92 18.412-.297 8.697-.014 11.956 1.351 15.53 2.597 6.8 5.841 8.348 17.498 8.348 15.98 0 19-3.417 19-21.493 0-11.606-1.078-15.464-5.45-19.5-2.413-2.228-3.706-2.532-11.879-2.797-7.302-.237-9.87.069-12.6 1.5m4.267 3.296c-2.03.818-4.081 4.591-3.055 5.617.256.257 1.825-.677 3.486-2.075 3.207-2.699 5.231-3.254 5.231-1.435 0 .608 1.125 1.991 2.5 3.073s2.5 2.578 2.5 3.325 1.35 2.321 3 3.496l3 2.136v-6.011c0-5.079-.345-6.253-2.223-7.568-2.417-1.693-10.819-2.018-14.439-.558m-.588 7.3L79 133.386v11.307c0 14.01.828 15.307 9.777 15.307C97.858 160 99 158.706 99 148.42v-8.466l-2.405 1.576c-1.323.866-3.685 1.439-5.25 1.273-2.672-.285-2.863-.054-3.145 3.783-.202 2.763.203 4.504 1.25 5.373 2.542 2.109 1.755 3.222-1.001 1.416-5.882-3.854-6.976-11.951-1.697-12.559 2.374-.273 2.718-.723 2.527-3.306-.122-1.645-.659-3.137-1.194-3.315s-.725-.97-.422-1.76c.652-1.698-1.816-1.755-5.913-.136M1.004 151.131c-.004 16.448.034 16.733 3.419 26 6.878 18.826 13.365 28.523 31.095 46.479 12.487 12.647 13.18 13.128 34.919 24.202 16.214 8.259 15.78 8.161 36.063 8.133 17.027-.024 17.838-.111 15-1.609-1.65-.871-6.848-5.322-11.551-9.891-4.721-4.587-9.815-8.624-11.375-9.016-2.787-.699-4.838-.341-17.519 3.059-7.911 2.121-16.126 1.662-19.146-1.069-3.142-2.842-5.456-8.006-7.352-16.407-3.247-14.392-4.622-15.715-20.393-19.62-18.4-4.556-22.06-11.389-15.747-29.399.867-2.471 1.841-6.743 2.166-9.493.524-4.44.273-5.411-2.246-8.676-1.56-2.023-5.27-5.84-8.244-8.484-2.973-2.644-6.234-6.165-7.246-7.824-1.833-3.006-1.84-2.96-1.843 13.615m115.53-15.185c-1.213 1.962-8.256 26.999-7.74 27.515.297.296 1.762.539 3.256.539 1.876 0 2.879-.619 3.24-2 .399-1.527 1.364-2 4.081-2 2.535 0 3.866.575 4.629 2 1.048 1.959 5.388 2.799 6.358 1.23.466-.755-6.545-25.105-7.825-27.177-.81-1.31-5.208-1.388-5.999-.107m19.121.883c-1.119 1.236-1.655 3.615-1.655 7.345 0 6.783 1.812 8.826 7.829 8.826 3.504 0 4.171.32 4.171 2 0 1.454-.667 2-2.441 2-1.343 0-2.719-.45-3.059-1s-1.941-1-3.559-1c-2.566 0-2.941.363-2.941 2.845 0 4.422 2.723 6.155 9.674 6.155 7.775 0 9.326-1.542 9.326-9.272 0-6.595-2.01-8.728-8.223-8.728-3.11 0-3.777-.353-3.777-2 0-2.501 3.738-2.741 5.484-.353.855 1.17 1.975 1.455 3.86.981 2.117-.531 2.656-1.259 2.656-3.59 0-4.135-3.173-6.038-10.068-6.038-4.177 0-6.048.47-7.277 1.829m20.808-.593c-.289.753-.399 7.196-.244 14.317l.281 12.947h6v-28l-2.756-.317c-1.654-.19-2.966.231-3.281 1.053m12.192.593c-1.119 1.236-1.655 3.615-1.655 7.345 0 6.576 1.622 8.526 7.492 9.002 2.847.231 4.086.826 4.323 2.074.258 1.359-.355 1.75-2.742 1.75-1.69 0-3.073-.45-3.073-1s-1.35-1-3-1c-2.696 0-3 .318-3 3.14 0 4.27 2.393 5.79 9.179 5.828 7.455.042 8.821-1.333 8.821-8.884 0-7.062-1.743-9.084-7.829-9.084-3.504 0-4.171-.32-4.171-2 0-1.539.667-2 2.893-2 1.707 0 3.14.644 3.496 1.57.361.942 1.504 1.442 2.857 1.25 2.93-.416 3.638-5.185 1.174-7.908-2.416-2.67-12.373-2.726-14.765-.083m-49.585 12.339c-.038.918-.343 2.38-.677 3.25-.398 1.038-.055 1.582 1 1.582 1.752 0 1.941-1.396.607-4.5-.687-1.598-.874-1.665-.93-.332M58 210.383c0 .211 1.111.596 2.47.856 1.358.26 2.232.087 1.941-.383-.512-.829-4.411-1.246-4.411-.473m17.232 3.117c0 2.2.206 3.213.457 2.25.252-.963 1.292-1.75 2.311-1.75s2.059.787 2.311 1.75.457-.05.457-2.25-.206-3.213-.457-2.25c-.252.963-1.292 1.75-2.311 1.75s-2.059-.787-2.311-1.75-.457.05-.457 2.25m8.335-1.574c-2.173 2.402-1.688 5.437.944 5.902 1.978.35 1.978.343-.011-1.206-1.979-1.542-1.977-1.559.25-1.59 2.329-.033 3.013-1.443 1.234-2.542-.559-.346-.758-1.047-.441-1.559.985-1.594-.15-1.022-1.976.995m30.482-.926c-.149.825-.188 2.512-.088 3.75.123 1.517-.368 2.25-1.506 2.25-1.256 0-1.567-.632-1.216-2.47.26-1.358.087-2.232-.383-1.941-1.445.893-.948 4.438.711 5.075 2.36.906 3.627-1.011 3.166-4.787-.227-1.857-.535-2.702-.684-1.877m12.618-.333c-1.201 1.2-.699 5.061.82 6.322 1.719 1.427 4.52.674 4.498-1.208-.012-.958-.239-.929-.899.115-.486.767-1.605 1.119-2.485.781-1.89-.725-2.156-5.286-.351-6.015.698-.281.771-.539.167-.583-.596-.043-1.384.221-1.75.588m6.427 2.833c.029 3.499.15 3.707.97 1.662.59-1.474.578-2.952-.033-4-.74-1.267-.962-.712-.937 2.338m33.267-1.998c-1.107 2.884.528 6.502 2.908 6.435l2.231-.064-2.25-.904c-1.539-.619-2.25-1.741-2.25-3.553 0-2.278.346-2.583 2.47-2.177 1.358.26 2.232.087 1.941-.383-.876-1.418-4.433-.963-5.05.646m-15.111.229c-.687.239-1.25.903-1.25 1.475 0 .682.462.656 1.342-.075 1.592-1.321 2.658-.505 2.658 2.036 0 1.942-2.482 2.542-3.342.808-.279-.564-.392-.451-.25.25s1.121 1.275 2.175 1.275c1.325 0 2.011-.81 2.221-2.622.306-2.641-1.195-3.97-3.554-3.147m27.555.876c-1.268.685-3.092 1.489-4.055 1.788s-1.75 1.231-1.75 2.074c0 1.759 3.538 2.087 4.566.424.461-.745-.011-.887-1.441-.433-1.261.4-2.125.241-2.125-.393 0-.587.8-1.067 1.777-1.067.978 0 2.778-.701 4-1.557 2.05-1.435 2.229-1.416 2.302.25.046 1.05.29 1.283.583.557.831-2.058 3.167-1.414 3.632 1 .387 2.01.448 1.969.57-.387.113-2.194-.357-2.708-2.809-3.068-1.62-.238-3.982.128-5.25.812m16.445-.889c-.687.247-1.25.916-1.25 1.488 0 .631.584.554 1.488-.196 1.209-1.003 1.61-.919 2.133.445 1.283 3.342-1.356 3.965-3.962.935l-2.475-2.877.525 2.743c.408 2.138.142 2.744-1.209 2.744-1.309 0-1.616-.611-1.255-2.5.263-1.375.09-2.5-.384-2.5-.473 0-.861 1.533-.861 3.406 0 2.923.286 3.332 2.016 2.88 1.108-.29 2.273-.945 2.589-1.455.335-.543 1.154-.446 1.971.232 1.876 1.557 4.424.457 4.424-1.909 0-2.255-1.983-4.071-3.75-3.436m-137.1 3.102c-.13 2.874.141 3.276 2.022 3 1.194-.176 2.375-.995 2.625-1.82.366-1.211.197-1.259-.872-.25-1.996 1.883-2.75 1.531-3.209-1.5-.379-2.506-.43-2.456-.566.57m8.85-.32c0 1.375.173 2.5.383 2.5s.599-1.125.862-2.5.09-2.5-.384-2.5c-.473 0-.861 1.125-.861 2.5m21 0c0 1.375.173 2.5.383 2.5s.599-1.125.862-2.5.09-2.5-.384-2.5c-.473 0-.861 1.125-.861 2.5m3.362-1c-1.216 3.169 2.384 6.339 4.08 3.593.309-.498-.34-.671-1.441-.383-1.56.408-2.001.031-2.001-1.71s.441-2.118 2-1.71c1.1.287 2 .115 2-.384 0-1.522-4.024-1.007-4.638.594m6 0c-.866 2.257.348 4.515 2.357 4.384 1.669-.109 1.671-.145.031-.573-2.346-.613-2.217-1.956.25-2.601 2.372-.62 6 .186 6 1.333 0 .446-.787 1.016-1.75 1.268-1.578.412-1.584.468-.059.573 2.5.171 3.374-1.998 1.39-3.449-1.623-1.187-1.618-1.289.097-1.741 1.002-.264.178-.416-1.831-.337s-3.444.481-3.191.893-.266.75-1.156.75-1.34-.45-1-1 .352-1 .028-1c-.325 0-.85.675-1.166 1.5m19 0c-.866 2.257.348 4.515 2.357 4.384 1.669-.109 1.671-.145.031-.573-2.106-.551-2.341-2.311-.309-2.311 1.945 0 2.873-1.688 1.421-2.585-.731-.452-.903-.291-.457.43.427.691.063 1.155-.905 1.155-.89 0-1.34-.45-1-1s.352-1 .028-1c-.325 0-.85.675-1.166 1.5m20.393 1c.263 1.375.651 2.5.862 2.5s.383-1.125.383-2.5-.388-2.5-.861-2.5c-.474 0-.647 1.125-.384 2.5m2.995-1.838c.688.278 1.813.278 2.5 0 .688-.277.125-.504-1.25-.504s-1.937.227-1.25.504m4.25.325c-.825.478-2.287 1.112-3.25 1.409-2.381.736-2.229 3.604.191 3.604 1.068 0 2.233-.472 2.589-1.049.441-.713 1.113-.662 2.101.158 1.028.853 1.766.894 2.518.142s.52-1.018-.792-.908c-1.326.112-1.834-.487-1.778-2.093.044-1.238.044-2.224 0-2.191-.043.032-.754.45-1.579.928m14.595.513c.403 1.1.771 2.99.819 4.2.106 2.718.97 1.828 2.409-2.484.636-1.905.694-3.035.137-2.691-.528.326-.976 1.354-.995 2.284-.027 1.255-.431 1.046-1.57-.809-.968-1.578-1.263-1.763-.8-.5m-74.782.183c.721.289 1.584.253 1.916-.079s-.258-.568-1.312-.525c-1.165.048-1.402.285-.604.604M140 216c0 1.253 1.061 1.253 3 0 1.213-.784 1.069-.972-.75-.985-1.238-.008-2.25.435-2.25.985m-10 7c0 .55-.645 1-1.433 1-1.75 0-3.123 3.844-1.833 5.134.576.576.9.099.849-1.25-.046-1.2.543-2.398 1.309-2.663 1.031-.357 1.261.199.888 2.148-.276 1.447-.115 2.631.359 2.631.473 0 .861-1.8.861-4s-.225-4-.5-4-.5.45-.5 1m-15.19 3.5c-.225 1.925-.049 3.5.391 3.5.439 0 .799-1.575.799-3.5s-.176-3.5-.391-3.5c-.214 0-.574 1.575-.799 3.5m2.857-1.833c-.951.951-.825 4.117.189 4.744.47.291.629-.653.353-2.096-.437-2.288-.226-2.553 1.646-2.063 1.181.309 1.896.153 1.587-.345-.655-1.061-2.817-1.199-3.775-.24m5.449 2.583c.076 2.134.285 2.563.608 1.25.27-1.1.948-2.562 1.506-3.25.733-.903.565-1.25-.608-1.25-1.187 0-1.591.871-1.506 3.25m9.442-2.343c-.309.498.34.671 1.441.383 2.335-.611 2.63-1.29.56-1.29-.793 0-1.693.408-2.001.907m5.457.843c.012 1.384.198 1.462.889.372.48-.758 1.373-1.069 1.984-.691.612.378 1.112.21 1.112-.372s-.9-1.059-2-1.059c-1.244 0-1.994.662-1.985 1.75m-4.265.939c-1.872.49-2.461 3.311-.691 3.311.582 0 .781-.45.441-1s.11-1 1-1 1.34.45 1 1-.141 1 .441 1 1.059-.9 1.059-2c0-2.038-.183-2.112-3.25-1.311M120.5 229c-.34.55-.141 1 .441 1s1.059-.45 1.059-1-.198-1-.441-1-.719.45-1.059 1"/><path fill="#1976D2" fill-opacity=".761" fill-rule="evenodd" d="M91.165.877c-.735.466-1.185 1.242-1 1.726.184.483-3.265 2.161-7.665 3.727s-10.746 4.158-14.101 5.759S61.981 15 61.594 15C60.476 15 49.104 22.882 42 28.581c-7.389 5.928-14.752 13.455-20.817 21.283C17.142 55.079 3.738 81.21 2.43 86.424c-.358 1.427-1.052 2.842-1.541 3.144S0 97.809 0 107.209V124.3l2.91-4.017c1.6-2.209 5.221-5.989 8.045-8.4 9.767-8.336 10.878-12.83 6.545-26.482-5.39-16.983-1.877-24.197 13.582-27.889 14.234-3.401 16.949-4.515 18.928-7.77 1.044-1.716 2.814-7.097 3.933-11.96 2.406-10.448 3.912-13.641 8.098-17.163 4.188-3.524 11.998-3.565 22.556-.119 12.924 4.219 14.025 3.938 24.478-6.237 9.39-9.141 13.788-12.151 17.859-12.221 4.317-.074 10.833 3.938 16.686 10.275 10.884 11.784 13.164 12.483 26.668 8.17 13.511-4.315 22.436-2.788 26.195 4.48.869 1.68 2.716 7.437 4.104 12.794 3.824 14.746 4.206 15.122 19.182 18.831 10.508 2.602 14.542 4.594 17.594 8.688 2.84 3.81 2.595 11.036-.73 21.522-4.276 13.483-4.085 14.11 7.901 25.833 9.122 8.922 11.28 13.213 10.021 19.924-.555 2.958-2.707 5.781-10.173 13.344-5.207 5.276-9.723 10.609-10.035 11.851-.701 2.794.219 7.953 2.78 15.593 2.419 7.218 2.783 14.11.973 18.441-1.862 4.455-7.708 7.681-18.607 10.27-4.92 1.168-10.128 2.736-11.575 3.484-2.71 1.402-6.918 9.536-6.918 13.372 0 4.878-4.355 15.191-7.629 18.065-4.834 4.244-9.039 4.693-19.239 2.056-18.764-4.853-18.846-4.836-29.365 6.023-3.704 3.823-8.204 7.847-10 8.943l-3.267 1.992 17.216.003c12.637.003 18.09-.372 20.5-1.411a910 910 0 0 0 9.061-4c3.178-1.422 5.948-2.585 6.156-2.585.209 0 4.359-2.335 9.223-5.189 17.728-10.402 33.732-25.241 43.625-40.451 5.084-7.815 12.828-23.073 14.752-29.063.671-2.089 1.95-4.631 2.843-5.651 1.435-1.638 1.636-6.364 1.726-40.5.056-21.255-.181-37.071-.526-35.146l-.627 3.5-1.661-4.5c-.914-2.475-2.433-6.975-3.376-10-.942-3.025-2.77-7.067-4.063-8.982S244 68.259 244 67.921c0-1.578-9.909-16.82-13.011-20.011a1007 1007 0 0 1-9.198-9.668c-3.14-3.343-8.841-8.774-12.67-12.069-11.073-9.53-16.924-12.581-46.504-24.247-4.471-1.763-7.637-1.925-37.5-1.911-17.94.009-33.218.397-33.952.862M69 77v5h3.477c2.605 0 3.888-.627 5.115-2.5 1.517-2.316 1.517-2.684 0-5-1.227-1.873-2.51-2.5-5.115-2.5H69zm12.3 0c0 3.025.187 4.263.416 2.75s.229-3.987 0-5.5-.416-.275-.416 2.75m4.367-4.333c-1.652 1.652-.472 4.205 2.408 5.209 4.004 1.396 2.857 3.477-1.42 2.577-2.412-.507-2.889-.385-2.027.52 1.872 1.964 6.825.855 7.176-1.606.231-1.617-.453-2.398-2.825-3.224-3.683-1.285-3.05-3.45.731-2.501 1.815.456 2.377.307 1.88-.496-.765-1.238-4.835-1.567-5.923-.479m8.833.248c1.424.552 2.173 2.044 2.6 5.18l.6 4.405.15-4.282c.12-3.43.598-4.463 2.4-5.187 1.786-.718 1.219-.903-2.75-.897-3.424.004-4.369.251-3 .781M103 77c0 2.75.45 5 1 5s1-.9 1-2 .434-2 .965-2 1.446.9 2.035 2 1.527 2 2.085 2c.658 0 .683-.593.072-1.685-.607-1.083-.568-2.285.108-3.367 1.77-2.835.175-4.948-3.734-4.948H103zm10 0c0 2.75.45 5 1 5s1-2.25 1-5-.45-5-1-5-1 2.25-1 5m5 .06v5.061l3.75-.311c3.689-.305 3.747-.375 3.584-4.31-.092-2.2-.204-4.338-.25-4.75S123.425 72 121.5 72H118zm10.195-.31c.281 4.377.526 4.775 3.115 5.072 3.919.45 5.69-1.401 5.69-5.944 0-5.253-1.808-4.946-2.193.372-.251 3.481-.669 4.25-2.307 4.25s-2.056-.769-2.307-4.25c-.17-2.338-.757-4.25-1.305-4.25-.566 0-.866 2.055-.693 4.75M139 77c0 2.75.45 5 1 5s1-2.25 1-5-.45-5-1-5-1 2.25-1 5m4 0v5h3.429c5.828 0 8.591-4.862 4.742-8.345-1.006-.91-3.256-1.655-5-1.655-3.139 0-3.171.051-3.171 5m12.655-3.171c-3.298 3.644-.871 8.171 4.381 8.171 4.468 0 6.578-5.243 3.393-8.429-2.108-2.107-5.743-1.987-7.774.258M167 77c0 2.75.45 5 1 5s1-.9 1-2 .342-2 .759-2c.418 0 1.322.9 2.009 2s1.75 2 2.363 2c.788 0 .768-.416-.066-1.422-.908-1.094-.9-1.87.035-3.367 1.924-3.08.464-5.211-3.569-5.211H167zm11.975-2.5-1.95 5c-.951 2.437.183 3.59 1.475 1.5.882-1.427 5.248-1.239 5.78.25.245.688.737.983 1.093.657 1.041-.955-2.676-9.907-4.113-9.907-.72 0-1.748 1.125-2.285 2.5M71 77c0 3.185.367 4 1.8 4 3.839 0 5.353-3.704 2.629-6.429C72.614 71.756 71 72.641 71 77m34-2.073c0 1.431.642 2.073 2.073 2.073 2.563 0 2.272-3.31-.334-3.812-1.2-.231-1.739.308-1.739 1.739m14.701-1.295c-1.406 1.406-.642 2.368 1.882 2.368 1.622 0 2.429-.465 2.167-1.25-.481-1.446-3.02-2.147-4.049-1.118M145 77c0 3.185.367 4 1.8 4 4.056 0 5.72-5.116 2.266-6.965C145.784 72.279 145 72.851 145 77m12.75-2.92c-2.18 1.27-2.262 4.25-.166 5.99 3.117 2.587 7.024-2.428 4.376-5.618-1.409-1.698-1.864-1.738-4.21-.372m11.25.847c0 1.431.642 2.073 2.073 2.073s1.97-.539 1.739-1.739c-.502-2.606-3.812-2.897-3.812-.334m11.675.478c-1.029 2.682-.82 3.595.825 3.595 1.643 0 1.738-.535.605-3.427-.701-1.788-.804-1.8-1.43-.168M119 79.57c0 1.042.729 1.462 2.172 1.25 3.201-.472 3.544-2.82.411-2.82-1.68 0-2.583.549-2.583 1.57M.411 107c0 9.625.15 13.563.334 8.75.183-4.813.183-12.688 0-17.5-.184-4.812-.334-.875-.334 8.75m54.021-11.536c-1.732 2.642-1.832 2.259 2.88 10.964 1.573 2.906 1.438 4.572-.371 4.572-.518 0-.941-.675-.941-1.5s-.675-1.5-1.5-1.5c-1.914 0-1.952 3.38-.055 4.954 2.127 1.765 5.718.87 6.646-1.657.595-1.617.017-3.687-2.174-7.792-1.64-3.074-2.681-6.079-2.311-6.676.438-.709.987-.521 1.582.543C59.402 99.541 61 99.443 61 97.2c0-2.095-1.842-4.2-3.677-4.2-.702 0-2.003 1.109-2.891 2.464M88.2 94.2c-1.251 1.251-1.709 15.311-.593 18.218.85 2.216 5.11 1.98 6.358-.352 1.688-3.154 1.305-15.653-.536-17.495-1.879-1.879-3.599-2.001-5.229-.371m10.55-.12c-2.456 1.431-2.139 5.686.776 10.42 2.828 4.591 3.114 6.5.974 6.5-.825 0-1.5-.675-1.5-1.5 0-1.687-1.564-2.015-2.487-.521-1.1 1.78 1.474 5.021 3.987 5.021 4.787 0 5.445-5.365 1.369-11.154-1.028-1.46-1.855-3.71-1.837-5 .03-2.227.103-2.252 1.433-.496 1.653 2.182 3.728 1.347 2.814-1.132-.606-1.644-2.219-3.204-3.279-3.172-.275.008-1.287.473-2.25 1.034m101.821.491C199.442 95.7 199 98.112 199 103.137c0 7.668 1.128 10.863 3.835 10.863 3.307 0 4.165-2.164 4.165-10.5 0-7.941-.884-10.5-3.629-10.5-.675 0-1.935.707-2.8 1.571m9.925.794c-1.713 2.615-1.174 4.856 2.438 10.135 2.433 3.556 2.633 5.5.566 5.5-.825 0-1.5-.675-1.5-1.5s-.675-1.5-1.5-1.5c-1.794 0-1.989 3.111-.3 4.8 1.874 1.874 5.615 1.415 6.82-.838 1.297-2.423.563-5.124-2.757-10.141-2.566-3.878-2.203-7.827.393-4.276 2.027 2.771 3.76.494 1.778-2.336-1.999-2.854-4-2.802-5.938.156M37 104c0 8.222.267 10 1.5 10s1.5-1.778 1.5-10-.267-10-1.5-10-1.5 1.778-1.5 10m6 0c0 10.428 1.659 14.001 2.206 4.75l.31-5.25 1.581 4.946c2.665 8.336 3.903 6.952 3.903-4.363C51 98.028 50.601 94 50 94c-.55 0-1.007 2.362-1.015 5.25-.017 5.855-1.424 5.03-2.524-1.48-.385-2.279-1.195-3.77-2.049-3.77C43.29 94 43 96.054 43 104m20-1.2c0 9.32.771 11.2 4.593 11.2 2.925 0 3.407-1.64 3.407-11.582C71 95.602 70.715 94 69.5 94s-1.5 1.611-1.5 8.5c0 5-.412 8.5-1 8.5s-1-3.5-1-8.5c0-6.889-.284-8.5-1.5-8.5-1.22 0-1.5 1.644-1.5 8.8m10.213.795c.191 6.469.69 9.877 1.488 10.141.828.274 1.298-1.559 1.517-5.919l.317-6.317.862 6.25c.474 3.438 1.202 6.25 1.619 6.25.416 0 1.2-2.588 1.742-5.75l.985-5.75.129 5.75c.098 4.387.483 5.75 1.628 5.75 1.233 0 1.5-1.778 1.5-10 0-9.314-.136-10-1.988-10-1.552 0-2.131.893-2.638 4.062-.712 4.452-2.032 4.16-2.547-.562-.244-2.242-.905-3.082-2.614-3.324-2.265-.322-2.284-.23-2 9.419m38.428-.845c.724 4.813 1.326 9.345 1.337 10.073.012.728.809 1.172 1.772.988 1.345-.259 2.025-2.069 2.937-7.824C119.307 95.774 119.279 94 117.5 94c-1.064 0-1.504 1.09-1.515 3.75-.009 2.063-.452 4.425-.985 5.25-.723 1.119-.973.568-.985-2.168-.019-4.529-.848-6.832-2.459-6.832-.968 0-.949 1.871.085 8.75M121 104v10h2.941c3.555 0 5.096-1.916 2.16-2.684-1.522-.398-2.101-1.344-2.101-3.433 0-1.585.45-2.883 1-2.883s1-.675 1-1.5-.45-1.5-1-1.5-1-1.073-1-2.383c0-1.579.708-2.569 2.096-2.932 4.278-1.119 4.904.021 4.904 8.922 0 6.794.286 8.393 1.5 8.393 1.216 0 1.5-1.611 1.5-8.5s.284-8.5 1.5-8.5c.825 0 1.5-.675 1.5-1.5 0-1.208-1.556-1.5-8-1.5h-8zm17 0v10h3.5c2.444 0 3.5-.452 3.5-1.5 0-.833-.889-1.5-2-1.5-1.473 0-2-.667-2-2.531 0-1.393.675-2.791 1.5-3.107s1.5-1.203 1.5-1.969-.675-1.393-1.5-1.393c-.933 0-1.5-.944-1.5-2.5 0-1.833.533-2.5 2-2.5 1.111 0 2-.667 2-1.5 0-1.048-1.056-1.5-3.5-1.5H138zm9 0c0 8.222.267 10 1.5 10 1.095 0 1.5-1.133 1.5-4.2 0-4.669 1.633-4.201 2.173.623.18 1.607.83 3.088 1.445 3.289.763.25 1.128-2.271 1.148-7.923.039-11.182-.184-11.789-4.333-11.789H147zm10 0c0 8.222.267 10 1.5 10s1.5-1.778 1.5-10-.267-10-1.5-10-1.5 1.778-1.5 10m6-.083c0 6.055.399 10.083 1 10.083.55 0 1.044-2.588 1.098-5.75l.098-5.75 1.676 5.425c2.772 8.973 4.128 7.712 4.128-3.842 0-10.485-1.662-14.14-2.198-4.833l-.302 5.25-1.511-4.92c-2.615-8.517-3.989-7.023-3.989 4.337m12.562-8.667c-.543 1.814-2.562 15.358-2.562 17.193 0 2.255 2.094 1.913 2.71-.443.597-2.284 3.29-2.741 3.29-.559 0 1.555 1.806 3.086 2.648 2.245.283-.284-.05-4.829-.74-10.101-1.076-8.225-1.517-9.585-3.112-9.585-1.022 0-2.027.563-2.234 1.25M184 104c0 8.222.267 10 1.5 10 1.096 0 1.504-1.146 1.515-4.25.012-3.112.275-3.849.985-2.75.533.825.976 2.737.985 4.25.008 1.58.567 2.75 1.313 2.75 1.6 0 2.009-16.807.456-18.75-.549-.687-2.294-1.25-3.876-1.25H184zm10 0c0 8.222.267 10 1.5 10s1.5-1.778 1.5-10-.267-10-1.5-10-1.5 1.778-1.5 10m-104-.559c0 4.373.422 7.559 1 7.559.571 0 1-2.98 1-6.941 0-3.818-.45-7.219-1-7.559-.633-.391-1 2.156-1 6.941m112.667-6.774c-1.08 1.08-.772 14.333.333 14.333.578 0 1-3.167 1-7.5 0-7.531-.104-8.063-1.333-6.833M150 99.5c0 1.375.412 2.5.917 2.5 1.171 0 1.925-2.128 1.329-3.75-.796-2.165-2.246-1.358-2.246 1.25m37 .559c0 1.785.417 2.802 1 2.441.55-.34 1-1.716 1-3.059S188.55 97 188 97s-1 1.377-1 3.059m-10 4c0 1.682.39 2.818.866 2.524.805-.498.366-5.583-.483-5.583-.21 0-.383 1.377-.383 3.059m-97.5 17.404c-2.2.829-4.076 1.514-4.168 1.522s-1.218 1.703-2.5 3.765c-2.09 3.361-2.332 4.944-2.332 15.25 0 9.75.309 12.033 2.034 15 3.01 5.18 7.441 6.997 17.068 6.998 6.786.002 8.654-.37 11.5-2.285 5.094-3.429 6.334-6.831 6.731-18.459.302-8.873.062-10.84-1.791-14.668-1.177-2.431-3.298-5.179-4.713-6.106-3.643-2.387-16.593-2.99-21.829-1.017m.905 4.642c-1.597 1.765-1.961 4.017-2.253 13.939-.445 15.167.534 18.482 5.939 20.101 5.719 1.714 12.963.156 14.622-3.145 1.634-3.249 1.742-26.268.137-29.316-1.721-3.271-2.755-3.652-9.945-3.669-5.446-.012-6.927.352-8.5 2.09M1.022 151.5l.009 16 3.917 10.283c6.894 18.098 12.883 27.066 29.895 44.763 11.679 12.15 14.363 14.029 34.157 23.906 8.525 4.254 16.281 8.143 17.236 8.641.955.499 9.706.907 19.446.907h17.71l-4.532-2.874c-2.493-1.581-6.518-5.207-8.946-8.058s-6.097-6.203-8.153-7.448c-4.316-2.613-7.505-2.404-21.761 1.429-10.486 2.82-15.042 2.246-19.472-2.45-2.97-3.15-5.674-10.018-7.124-18.099-1.891-10.536-4.754-13.117-18.196-16.402-10.664-2.606-15.071-4.834-17.958-9.083-2.952-4.344-2.89-9.452.235-19.515 1.367-4.4 2.492-10.209 2.5-12.909.015-4.822-.123-5.041-7.735-12.361-4.262-4.098-8.535-8.639-9.493-10.091-1.695-2.566-1.744-2.195-1.735 13.361m115.46-14.25c-.915 2.516-7.482 24.605-7.482 25.169 0 .319 1.35.581 3 .581q3 0 3-1.5c0-1.111 1.167-1.5 4.5-1.5s4.5.389 4.5 1.5q0 1.5 3 1.5c1.65 0 3-.336 3-.747s-1.687-6.484-3.75-13.497c-3.64-12.375-3.832-12.749-6.531-12.753-1.53-.001-2.986.56-3.237 1.247m19.173.579c-1.022 1.129-1.655 3.543-1.655 6.311 0 6.005 2.613 8.86 8.109 8.86 3.607 0 3.997.236 3.711 2.25-.386 2.716-4.511 3.719-5.431 1.32-.781-2.035-5.273-2.037-6.053-.003-.331.863-.016 2.663.7 4 1.178 2.202 1.932 2.433 7.933 2.433 3.824 0 7.139-.508 7.831-1.2 1.615-1.615 1.56-12.256-.07-13.609-.698-.579-3.285-1.197-5.75-1.372-3.745-.267-4.532-.682-4.795-2.534-.414-2.909 4.553-4.505 5.996-1.926.505.902 2.021 1.641 3.369 1.641 2.017 0 2.45-.495 2.45-2.8 0-4.159-1.711-5.2-8.545-5.2-4.683 0-6.539.435-7.8 1.829M157 149.5V163h5v-27h-5zm11.2-12.3c-.66.66-1.2 3.784-1.2 6.943 0 6.753 1.97 8.857 8.292 8.857 3.418 0 3.811.251 3.528 2.25-.394 2.772-4.693 3.728-6.029 1.34-.49-.874-1.993-1.59-3.341-1.59-2.017 0-2.45.495-2.45 2.8 0 1.54.54 3.34 1.2 4 1.581 1.581 14.019 1.581 15.6 0 .66-.66 1.2-3.72 1.2-6.8s-.54-6.14-1.2-6.8-3.39-1.2-6.066-1.2c-4.719 0-4.857-.083-4.55-2.75.248-2.16.906-2.818 3.066-3.066 1.964-.226 2.75.131 2.75 1.25 0 1.073.943 1.566 3 1.566 2.619 0 3-.356 3-2.8 0-4.224-1.689-5.2-9-5.2-3.8 0-7.109.509-7.8 1.2m-49.924 13.251c-1.044 3.402-.987 3.549 1.385 3.549 2.103 0 2.371-.338 1.785-2.25-1.416-4.631-2.065-4.897-3.17-1.299"/><path fill="#1976D2" fill-opacity=".898" fill-rule="evenodd" d="M92.165.862c-.735.474-1.185 1.261-1 1.75.184.488-3.715 2.367-8.665 4.175C62.738 14.003 53.938 18.93 41.167 29.93 25.891 43.086 19.263 51.57 10.722 68.9-.579 91.831 0 89.746 0 107.536v15.752l3.377-4.423c1.857-2.432 5.507-6.167 8.11-8.301 5.482-4.492 8.504-8.98 8.509-12.638.002-1.415-1.121-6.332-2.496-10.926-2.833-9.465-3.188-16.768-1.02-20.961 2.895-5.598 7.372-7.759 22.732-10.971 6.884-1.44 11.164-5.043 12.624-10.629.566-2.166 1.788-6.989 2.715-10.717 3.079-12.376 8.616-17.275 18.459-16.331 3.03.29 7.53 1.248 10 2.128s6.66 2.017 9.313 2.528c6.116 1.178 8.22.125 16.177-8.091 8.077-8.34 13.811-11.957 18.946-11.952 5.27.005 9.407 2.601 17.513 10.991 3.597 3.724 7.741 7.526 9.208 8.449 3.125 1.965 6.213 1.605 18.614-2.175 16.707-5.092 23.905-.541 28.124 17.783 3.451 14.987 4.359 15.862 20.095 19.339 9.524 2.104 15.012 5.166 17.248 9.624 2.376 4.734 2.203 9.205-.748 19.388-4.303 14.849-3.77 16.669 8.174 27.934 6.958 6.562 9.328 10.709 9.322 16.314-.005 5.206-2.758 9.421-12.109 18.542-7.73 7.54-7.887 7.791-7.887 12.594 0 2.695.921 7.558 2.047 10.806 1.126 3.249 2.296 8.607 2.6 11.907.478 5.192.236 6.464-1.801 9.446-3.239 4.744-7.376 6.911-18.399 9.642-5.193 1.286-10.341 2.82-11.441 3.409-2.809 1.503-5.526 7.381-6.937 15.011-3.44 18.592-12.048 23.488-30.781 17.505-13.02-4.158-14.119-3.893-24.167 5.828-4.741 4.587-9.734 9.087-11.094 10-2.353 1.579-1.703 1.659 13.528 1.659h16l10.874-4.494c18.986-7.845 39.553-22.286 51.828-36.391 6.485-7.451 15.679-22.135 20.422-32.615 1.742-3.85 4.509-9.925 6.147-13.5l2.98-6.5-.079-37c-.044-20.35-.338-35.204-.653-33.01l-.574 3.991-1.632-3.991c-.898-2.194-2.411-6.69-3.362-9.99s-2.065-6.45-2.473-7-2.404-4.063-4.436-7.806c-6.74-12.42-10.286-17.088-22.243-29.285-17.639-17.991-25.195-22.913-50.854-33.124l-12-4.776L126 .255c-17.875-.14-33.101.133-33.835.607M70 77c0 4.386.254 5 2.066 5C75.467 82 78 80.095 78 77.536 78 74.461 75.523 72 72.429 72 70.181 72 70 72.373 70 77m11.3 0c0 3.025.187 4.263.416 2.75s.229-3.987 0-5.5-.416-.275-.416 2.75m5.7-4.617c0 .211.901.619 2.001.907 1.101.288 1.75.115 1.441-.383-.538-.871-3.442-1.313-3.442-.524m8.198.296c1.217.321 1.803 1.774 2.07 5.134l.372 4.687.18-4.677c.135-3.517.614-4.79 1.93-5.134.963-.251-.05-.457-2.25-.457s-3.236.201-2.302.447m8.802.11c0 .435 1.237.772 2.75.75 1.795-.025 2.75.482 2.75 1.461s-.955 1.486-2.75 1.461c-2.435-.035-2.734.309-2.614 3 .106 2.356.234 2.533.57.789.238-1.237 1.008-2.25 1.711-2.25.702 0 1.799 1.013 2.435 2.25l1.159 2.25-.588-2.298c-.324-1.264-.046-2.951.617-3.75.942-1.135.933-1.78-.04-2.952-1.286-1.55-6-2.108-6-.711m14 4.274v5.064l3.25-.314c3.115-.3 3.256-.5 3.388-4.813.095-3.124-.105-3.889-.655-2.5-.436 1.1-.562 3.013-.28 4.25.432 1.889.096 2.25-2.095 2.25-2.368 0-2.608-.361-2.608-3.93 0-3.281.372-4.003 2.25-4.364 1.929-.372 1.858-.453-.5-.57-2.656-.131-2.75.037-2.75 4.927m10.15-1.435c-.177 4.855 1.645 6.891 5.337 5.965 2.221-.558 2.496-1.124 2.371-4.862l-.142-4.231-.608 4c-.523 3.438-.959 4-3.108 4-2.207 0-2.57-.527-3.1-4.5l-.6-4.5zM140.3 77c0 3.025.187 4.263.416 2.75s.229-3.987 0-5.5-.416-.275-.416 2.75m3.7 0c0 4.821.099 4.995 2.75 4.864 2.358-.117 2.429-.198.5-.57-1.87-.36-2.25-1.085-2.25-4.294s.38-3.934 2.25-4.294c1.929-.372 1.858-.453-.5-.57-2.651-.131-2.75.043-2.75 4.864m12.75-3.92c-1.773 1.033-2.473 6.355-.959 7.291.435.269.617-1.003.404-2.826-.337-2.889-.022-3.447 2.459-4.351 1.565-.57 2.171-1.058 1.346-1.085s-2.287.41-3.25.971m11.25-.291c0 .435 1.238.772 2.75.75 1.795-.025 2.75.482 2.75 1.461s-.955 1.486-2.75 1.461c-2.435-.035-2.734.309-2.614 3 .106 2.356.234 2.533.57.789.548-2.849 1.755-2.857 3.737-.027.856 1.222 1.557 1.698 1.557 1.059 0-.64-.479-1.46-1.065-1.822-.698-.432-.478-1.307.638-2.541 1.391-1.536 1.472-2.16.443-3.4-1.299-1.564-6.016-2.136-6.016-.73m10.613 3.834c-.884 2.594-1.383 4.94-1.11 5.213.273.274.497-.028.497-.669 0-1.559 5.267-1.495 6.87.083.738.727.46-.824-.665-3.705-1.064-2.725-2.396-5.109-2.96-5.297s-1.748 1.781-2.632 4.375M71 77c0 4.071.883 4.749 4.418 3.393C78.787 79.1 76.627 73 72.8 73c-1.433 0-1.8.815-1.8 4m14.268-2.583c.127 1.055.907 2.101 1.732 2.326.965.263 1.107.114.4-.417-.605-.454-1.385-1.501-1.732-2.326-.445-1.054-.564-.93-.4.417M150.5 77c0 2.095.338 3.6.75 3.345s.75-1.76.75-3.345-.338-3.091-.75-3.345c-.412-.255-.75 1.25-.75 3.345m12-.305c0 3.087-.411 3.812-2.5 4.401-2.346.661-2.363.711-.273.804 3.145.141 5.793-4.059 4.309-6.833-.609-1.137-1.203-2.067-1.321-2.068s-.215 1.663-.215 3.696m17.5-1.777c0 .505-.273 1.63-.607 2.5-.435 1.134-.01 1.582 1.5 1.582 2.194 0 2.523-.751 1.5-3.418-.652-1.698-2.393-2.181-2.393-.664m-90.4 2.756c.605.454 1.385 1.501 1.732 2.326.445 1.054.564.93.4-.417-.127-1.055-.907-2.101-1.732-2.326-.965-.263-1.107-.114-.4.417m-3.782 3.544c.533.533 1.805.793 2.826.576 1.375-.291 1.123-.543-.97-.969-1.825-.373-2.482-.233-1.856.393M.409 106.5c-.001 9.35.149 13.31.334 8.799.185-4.51.186-12.16.002-17C.562 93.46.41 97.15.409 106.5M38 104c0 6 .4 10 1 10s1-4 1-10-.4-10-1-10-1 4-1 10m5 0c0 6 .4 10 1 10 .55 0 1-2.565 1-5.7 0-6.452 1.085-6.107 2.983.95.702 2.612 1.668 4.75 2.147 4.75s.87-4.5.87-10c0-10.697-1.69-13.955-2.205-4.25l-.305 5.75-1.816-5.75C45.675 96.588 44.44 94 43.929 94S43 98.5 43 104m11.667-9.333c-1.454 1.453-.537 6.121 1.833 9.333 2.649 3.591 3.194 6.453 1.433 7.541-.586.363-1.697-.173-2.468-1.191-1.339-1.768-1.403-1.753-1.433.333-.038 2.615 3.399 4.034 5.516 2.277s1.775-4.918-1.022-9.46c-1.355-2.2-2.478-4.787-2.495-5.75-.035-1.995 2.572-2.396 3.249-.5.245.688.743.977 1.107.643.363-.334.376-1.346.03-2.25-.623-1.621-4.455-2.272-5.75-.976M64 103.433c0 8.805.144 9.478 2.174 10.122 3.549 1.127 4.826-1.85 4.826-11.246 0-11.042-1.841-10.742-2.211.36-.194 5.831-.698 8.805-1.539 9.084-.939.311-1.25-1.849-1.25-8.67C66 97.694 65.593 94 65 94c-.596 0-1 3.811-1 9.433M74 104c0 6 .4 10 1 10 .565 0 1.047-3.155 1.107-7.25.105-7.124.123-7.172 1.032-2.75 2.021 9.83 2.116 9.913 3.405 3l1.212-6.5.122 6.191c.067 3.405.572 6.469 1.122 6.809.641.396 1-2.99 1-9.441C84 96.083 83.709 94 82.594 94c-.929 0-1.64 1.697-2.094 5.001-.818 5.946-2.011 5.748-2.946-.489C77.112 95.567 76.378 94 75.439 94 74.283 94 74 95.967 74 104m14.238-8.838c-1.93 1.93-1.654 16.248.346 17.908 1.149.953 2.041 1.026 3.25.263 1.351-.852 1.666-2.732 1.666-9.942 0-8.146-.169-8.915-2.012-9.179-1.106-.159-2.569.269-3.25.95m9.962.038c-1.784 1.784-1.466 3.851 1.274 8.3 2.493 4.048 3.318 8.5 1.576 8.5-.523 0-1.389-.784-1.925-1.742-1.155-2.064-2.639-1.04-1.771 1.222 1.5 3.908 6.646 2.378 6.646-1.976 0-1.239-1.182-4.367-2.627-6.951-2.003-3.584-2.349-4.977-1.458-5.868s1.383-.821 2.072.294c1.126 1.822 2.473.662 1.668-1.436-.705-1.836-3.769-2.029-5.455-.343m12.8-.032c0 1.257 1.802 12.882 2.571 16.582.257 1.237.839 2.25 1.294 2.25.896 0 4.353-19.115 3.595-19.873-.927-.927-1.536.718-2.134 5.767-.849 7.17-2.001 7.213-2.826.104-.383-3.299-1.102-5.998-1.598-5.998s-.902.526-.902 1.168m10 8.332v9.5h3c1.65 0 3-.45 3-1s-.9-1-2-1c-1.556 0-2-.667-2-3q0-3 1.5-3c.825 0 1.5-.402 1.5-.893s-.675-1.152-1.5-1.469c-2.292-.879-1.911-5.718.5-6.348 3.04-.795 2.388-2.29-1-2.29h-3zm8-8.607c0 .491.675 1.152 1.5 1.469 1.171.449 1.5 2.446 1.5 9.107 0 5.021.411 8.531 1 8.531.593 0 1-3.667 1-9 0-7.333.278-9 1.5-9 .825 0 1.5-.45 1.5-1s-1.8-1-4-1-4 .402-4 .893m10 8.5c0 9.882.576 11.103 4.5 9.527 1.937-.778 1.929-.825-.25-1.478-1.657-.497-2.25-1.435-2.25-3.559 0-1.896.513-2.883 1.5-2.883.825 0 1.5-.45 1.5-1s-.675-1-1.5-1c-1.048 0-1.5-1.056-1.5-3.5 0-2.833.381-3.5 2-3.5 1.1 0 2-.45 2-1s-1.35-1-3-1h-3zm9 .666c0 6.451.359 9.837 1 9.441.55-.34 1-2.391 1-4.559 0-5.095 1.56-5.094 2.375.002.347 2.168 1.09 4.226 1.651 4.573.671.415.798-.853.37-3.692-.358-2.378-.667-4.549-.687-4.824s.319-1.771.754-3.324c1.122-4.006-.762-7.676-3.942-7.676H148zm10 0c0 6.451.359 9.837 1 9.441.552-.341 1-4.844 1-10.059 0-5.627-.404-9.441-1-9.441-.6 0-1 4.02-1 10.059m5-.059c0 10.697 1.69 13.955 2.205 4.25l.305-5.75 1.816 5.75c.999 3.162 2.234 5.75 2.745 5.75s.929-4.5.929-10c0-10.697-1.69-13.955-2.205-4.25l-.305 5.75-1.816-5.75c-.999-3.162-2.234-5.75-2.745-5.75S163 98.5 163 104m12.036-2.75c-.63 3.987-1.382 8.487-1.67 10-.663 3.475 1.194 3.64 2.061.184.797-3.174 3.926-2.941 4.393.326.175 1.232.738 2.24 1.25 2.24 1.161 0 1.157-.304-.086-7.566-.559-3.264-1.255-7.397-1.546-9.184-.953-5.86-3.162-3.853-4.402 4M185 104c0 6 .4 10 1 10 .55 0 1-2.052 1-4.559 0-5.449 1.477-5.116 2.38.537.354 2.212 1.077 4.022 1.607 4.022.564 0 .672-1.347.261-3.25-.809-3.739-.732-7.146.242-10.842.788-2.99-1.465-5.908-4.561-5.908-1.777 0-1.929.79-1.929 10m10 .059c0 6.451.359 9.837 1 9.441.552-.341 1-4.844 1-10.059 0-5.627-.404-9.441-1-9.441-.6 0-1 4.02-1 10.059m5.424-8.721c-.283.737-.381 4.852-.219 9.145.236 6.253.655 8.027 2.104 8.912 1.446.884 2.097.716 3.25-.836 1.805-2.432 1.989-15.611.241-17.359-1.606-1.606-4.738-1.525-5.376.138m10.243-.671c-1.445 1.445-.539 5.91 1.92 9.458 2.639 3.808 2.906 6.879.663 7.625-.687.229-1.25-.296-1.25-1.167 0-.87-.45-1.583-1-1.583-1.896 0-.999 3.865 1.048 4.515 5.046 1.602 6.471-4.385 2.452-10.3-1.375-2.024-2.5-4.475-2.5-5.447 0-2.009 2.6-2.42 3.28-.518.245.688.788.932 1.207.543 1.414-1.314-.409-3.793-2.789-3.793-1.301 0-2.665.3-3.031.667m-121.25 2.688c-1.003 2.614.049 13.975 1.333 14.399.931.307 1.25-1.651 1.25-7.671C92 99.197 91.592 96 90.969 96c-.568 0-1.266.61-1.552 1.355M150 99.5c0 2.489.402 3.533 1.25 3.25.688-.229 1.25-1.692 1.25-3.25s-.562-3.021-1.25-3.25c-.848-.283-1.25.761-1.25 3.25m37 0c0 2.489.402 3.533 1.25 3.25.688-.229 1.25-1.692 1.25-3.25s-.562-3.021-1.25-3.25c-.848-.283-1.25.761-1.25 3.25m15.206 4.152c.37 9.881 2.294 10.033 2.294.181 0-4.974-.396-7.298-1.294-7.598-1.001-.333-1.227 1.345-1 7.417M177.057 101c-.047.825-.356 2.513-.687 3.75-.444 1.654-.175 2.25 1.013 2.25 1.745 0 2-2.28.617-5.5-.578-1.346-.887-1.509-.943-.5m-98.961 21.217c-1.322.706-3.347 2.553-4.5 4.106-1.884 2.537-2.096 4.183-2.096 16.231v13.408l3.088 3.088c3.747 3.746 8.581 4.96 17.238 4.327 12.409-.907 15.174-4.723 15.174-20.943 0-11.236-1.118-15.501-4.965-18.934-1.853-1.654-3.909-2.049-11.888-2.283-6.434-.189-10.447.144-12.051 1m4.912 1.618c-4.124 1.243-4.977 4.484-4.993 18.96-.014 12.793.078 13.389 2.44 15.75 2.091 2.091 3.395 2.455 8.808 2.455 10.096 0 10.179-.14 10.556-17.721.387-18.064-.089-19.133-8.819-19.785-3.025-.225-6.621-.072-7.992.341m33.612 14.415c-.329 1.238-2.134 7.313-4.012 13.5L109.194 163h2.335c1.458 0 2.575-.752 2.971-2 .507-1.598 1.513-2 5-2s4.493.402 5 2c.412 1.297 1.513 2 3.135 2 1.916 0 2.376-.409 1.97-1.75a5850 5850 0 0 0-6.747-22c-1.248-4.003-5.27-4.648-6.238-1m19.58-1.05c-1.615 1.615-1.56 12.256.07 13.609.698.579 3.285 1.197 5.75 1.372 4.027.287 4.48.572 4.48 2.819 0 2.09-.534 2.551-3.25 2.813-1.826.176-3.25-.152-3.25-.75 0-.584-1.125-1.063-2.5-1.063-1.942 0-2.5.513-2.5 2.3 0 3.574 1.927 4.7 8.045 4.7 7.042 0 8.955-1.746 8.955-8.174 0-5.706-2.121-7.826-7.829-7.826-3.968 0-4.171-.146-4.171-3 0-2.762.278-3 3.5-3 2.513 0 3.5.442 3.5 1.57 0 2.236 4.385 1.423 4.827-.894.673-3.526-2.654-5.676-8.782-5.676-3.105 0-6.185.54-6.845 1.2m20.8 12.3V163h5v-27h-5zm11.655-11.671c-1.026 1.133-1.655 3.546-1.655 6.345 0 5.706 2.121 7.826 7.829 7.826 3.968 0 4.171.146 4.171 3 0 2.653-.34 3-2.941 3-1.618 0-3.219-.45-3.559-1s-1.716-1-3.059-1c-1.706 0-2.441.556-2.441 1.845 0 3.353 3.241 5.155 9.272 5.155 6.534 0 8.728-2.011 8.728-8 0-5.558-2.289-8-7.498-8-4.782 0-5.969-.952-4.999-4.009.782-2.465 5.979-2.783 6.886-.421.362.943 1.502 1.441 2.857 1.247 1.722-.247 2.191-.894 1.986-2.74-.453-4.075-2.07-5.077-8.199-5.077-4.274 0-6.142.463-7.378 1.829M1 152.169c0 8.734.465 15.876 1.141 17.534.627 1.538 1.699 4.147 2.381 5.797.683 1.65 1.797 4.738 2.475 6.863 3.449 10.808 13.867 25.415 29.003 40.67 12.199 12.294 13.341 13.088 33 22.941 9.075 4.548 17.281 8.664 18.236 9.148.955.483 9.231.878 18.39.878h16.653l-3.889-2.622c-2.14-1.442-7.125-5.942-11.08-10-6.523-6.694-7.553-7.378-11.111-7.378-2.156 0-7.466 1.125-11.798 2.5-18.634 5.914-26.548 1.883-30.433-15.5-2.317-10.37-4.059-14.83-6.387-16.355-1.271-.833-6.893-2.645-12.494-4.028-11.365-2.805-16.422-5.431-18.611-9.664-1.919-3.71-1.859-11.053.146-17.953.879-3.025 2.074-8.025 2.655-11.111 1.273-6.755.603-7.941-10.834-19.157L1 137.432zm117.124-3.096c-1.69 4.849-1.419 5.927 1.487 5.927 2.474 0 2.575-.198 1.922-3.75-.961-5.232-2.092-5.954-3.409-2.177"/></svg>